%TF.GenerationSoftware,KiCad,Pcbnew,8.0.0*%
%TF.CreationDate,2024-03-07T18:38:20+01:00*%
%TF.ProjectId,PDU FT24,50445520-4654-4323-942e-6b696361645f,rev?*%
%TF.SameCoordinates,Original*%
%TF.FileFunction,Soldermask,Bot*%
%TF.FilePolarity,Negative*%
%FSLAX46Y46*%
G04 Gerber Fmt 4.6, Leading zero omitted, Abs format (unit mm)*
G04 Created by KiCad (PCBNEW 8.0.0) date 2024-03-07 18:38:20*
%MOMM*%
%LPD*%
G01*
G04 APERTURE LIST*
G04 Aperture macros list*
%AMRoundRect*
0 Rectangle with rounded corners*
0 $1 Rounding radius*
0 $2 $3 $4 $5 $6 $7 $8 $9 X,Y pos of 4 corners*
0 Add a 4 corners polygon primitive as box body*
4,1,4,$2,$3,$4,$5,$6,$7,$8,$9,$2,$3,0*
0 Add four circle primitives for the rounded corners*
1,1,$1+$1,$2,$3*
1,1,$1+$1,$4,$5*
1,1,$1+$1,$6,$7*
1,1,$1+$1,$8,$9*
0 Add four rect primitives between the rounded corners*
20,1,$1+$1,$2,$3,$4,$5,0*
20,1,$1+$1,$4,$5,$6,$7,0*
20,1,$1+$1,$6,$7,$8,$9,0*
20,1,$1+$1,$8,$9,$2,$3,0*%
%AMRotRect*
0 Rectangle, with rotation*
0 The origin of the aperture is its center*
0 $1 length*
0 $2 width*
0 $3 Rotation angle, in degrees counterclockwise*
0 Add horizontal line*
21,1,$1,$2,0,0,$3*%
G04 Aperture macros list end*
%ADD10C,2.595000*%
%ADD11C,4.300000*%
%ADD12R,1.700000X1.700000*%
%ADD13O,1.700000X1.700000*%
%ADD14C,2.400000*%
%ADD15R,1.192000X1.192000*%
%ADD16C,1.192000*%
%ADD17RoundRect,0.250000X1.590990X0.000000X0.000000X1.590990X-1.590990X0.000000X0.000000X-1.590990X0*%
%ADD18C,2.000000*%
%ADD19C,3.000000*%
%ADD20RotRect,2.775000X2.775000X142.500000*%
%ADD21C,2.775000*%
G04 APERTURE END LIST*
D10*
%TO.C,U2*%
X167633517Y-203015274D03*
X167633517Y-216485274D03*
X164233517Y-203015274D03*
X164233517Y-216485274D03*
%TD*%
D11*
%TO.C,H1*%
X228265696Y-47953087D03*
%TD*%
%TO.C,H3*%
X304938392Y-224383918D03*
%TD*%
D10*
%TO.C,U17*%
X239624641Y-128983767D03*
X251832607Y-123291099D03*
X241061543Y-132065213D03*
X253269509Y-126372545D03*
%TD*%
%TO.C,U8*%
X142376381Y-203015274D03*
X142376381Y-216485274D03*
X138976381Y-203015274D03*
X138976381Y-216485274D03*
%TD*%
%TO.C,U47*%
X215783430Y-181268550D03*
X226102048Y-189926899D03*
X213597952Y-183873101D03*
X223916570Y-192531450D03*
%TD*%
D11*
%TO.C,H2*%
X80967378Y-224661557D03*
%TD*%
D10*
%TO.C,U13*%
X155051168Y-130949181D03*
X163709517Y-120630563D03*
X157655719Y-133134659D03*
X166314068Y-122816041D03*
%TD*%
%TO.C,U15*%
X219757566Y-81005611D03*
X231965532Y-75312943D03*
X221194468Y-84087057D03*
X233402434Y-78394389D03*
%TD*%
%TO.C,U6*%
X128578525Y-167611586D03*
X119920176Y-177930204D03*
X125973974Y-165426108D03*
X117315625Y-175744726D03*
%TD*%
%TO.C,U45*%
X209651728Y-203015274D03*
X209651728Y-216485274D03*
X206251728Y-203015274D03*
X206251728Y-216485274D03*
%TD*%
D12*
%TO.C,J1*%
X269800000Y-184175000D03*
D13*
X269800000Y-181635000D03*
%TD*%
D14*
%TO.C,U43*%
X133909332Y-202665000D03*
X130509332Y-202665000D03*
X130509332Y-216135000D03*
X133909332Y-216135000D03*
%TD*%
D10*
%TO.C,U49*%
X223250034Y-88242668D03*
X235458000Y-82550000D03*
X224686936Y-91324114D03*
X236894902Y-85631446D03*
%TD*%
D15*
%TO.C,Y1*%
X248887075Y-193618156D03*
D16*
X248887075Y-188738156D03*
%TD*%
D10*
%TO.C,U31*%
X263290143Y-162541321D03*
X249820143Y-162541321D03*
X263290143Y-159141321D03*
X249820143Y-159141321D03*
%TD*%
D17*
%TO.C,J4*%
X214000000Y-191800000D03*
%TD*%
D12*
%TO.C,J6*%
X274947075Y-177518156D03*
D13*
X274947075Y-180058156D03*
X274947075Y-182598156D03*
X274947075Y-185138156D03*
X274947075Y-187678156D03*
%TD*%
D10*
%TO.C,U35*%
X232613430Y-195258550D03*
X242932048Y-203916899D03*
X230427952Y-197863101D03*
X240746570Y-206521450D03*
%TD*%
D18*
%TO.C,J2*%
X146171695Y-142972870D03*
X136343143Y-158245708D03*
X186641744Y-196841182D03*
X198850356Y-183394629D03*
D19*
X148178248Y-158755891D03*
X151351661Y-161190937D03*
X154525075Y-163625982D03*
X157698488Y-166061028D03*
X160871901Y-168496074D03*
X164045315Y-170931120D03*
X167218728Y-173366165D03*
X170392141Y-175801211D03*
X173565555Y-178236257D03*
X176738968Y-180671302D03*
X179912381Y-183106348D03*
X183085795Y-185541394D03*
X152200000Y-156800000D03*
X155373414Y-159235046D03*
X158546827Y-161670092D03*
X161720240Y-164105138D03*
X164893654Y-166540183D03*
X168067067Y-168975229D03*
X171240480Y-171410275D03*
X174413894Y-173845320D03*
X177587307Y-176280366D03*
X180760720Y-178715412D03*
X183934134Y-181150458D03*
X153048339Y-152409064D03*
X156221753Y-154844110D03*
X159395166Y-157279156D03*
X162568579Y-159714201D03*
X165741993Y-162149247D03*
X168915406Y-164584293D03*
X172088819Y-167019338D03*
X175262233Y-169454384D03*
X178435646Y-171889430D03*
X181609059Y-174324476D03*
X184782473Y-176759521D03*
X187955886Y-179194567D03*
%TD*%
D20*
%TO.C,J3*%
X209590331Y-151558306D03*
D21*
X206416918Y-149123260D03*
X203243504Y-146688215D03*
X200070091Y-144253169D03*
X196896678Y-141818123D03*
X205568579Y-153514197D03*
X202395165Y-151079151D03*
X199221752Y-148644105D03*
X196048339Y-146209059D03*
X204720240Y-157905133D03*
X201546826Y-155470087D03*
X198373413Y-153035041D03*
X195199999Y-150599996D03*
X192026586Y-148164950D03*
D19*
X221425436Y-152068489D03*
X193340728Y-130518335D03*
X211596884Y-167341327D03*
X181132116Y-143964888D03*
%TD*%
M02*
