%TF.GenerationSoftware,KiCad,Pcbnew,8.0.0*%
%TF.CreationDate,2024-03-07T18:38:19+01:00*%
%TF.ProjectId,PDU FT24,50445520-4654-4323-942e-6b696361645f,rev?*%
%TF.SameCoordinates,Original*%
%TF.FileFunction,Paste,Top*%
%TF.FilePolarity,Positive*%
%FSLAX46Y46*%
G04 Gerber Fmt 4.6, Leading zero omitted, Abs format (unit mm)*
G04 Created by KiCad (PCBNEW 8.0.0) date 2024-03-07 18:38:19*
%MOMM*%
%LPD*%
G01*
G04 APERTURE LIST*
G04 Aperture macros list*
%AMRoundRect*
0 Rectangle with rounded corners*
0 $1 Rounding radius*
0 $2 $3 $4 $5 $6 $7 $8 $9 X,Y pos of 4 corners*
0 Add a 4 corners polygon primitive as box body*
4,1,4,$2,$3,$4,$5,$6,$7,$8,$9,$2,$3,0*
0 Add four circle primitives for the rounded corners*
1,1,$1+$1,$2,$3*
1,1,$1+$1,$4,$5*
1,1,$1+$1,$6,$7*
1,1,$1+$1,$8,$9*
0 Add four rect primitives between the rounded corners*
20,1,$1+$1,$2,$3,$4,$5,0*
20,1,$1+$1,$4,$5,$6,$7,0*
20,1,$1+$1,$6,$7,$8,$9,0*
20,1,$1+$1,$8,$9,$2,$3,0*%
%AMRotRect*
0 Rectangle, with rotation*
0 The origin of the aperture is its center*
0 $1 length*
0 $2 width*
0 $3 Rotation angle, in degrees counterclockwise*
0 Add horizontal line*
21,1,$1,$2,0,0,$3*%
G04 Aperture macros list end*
%ADD10R,1.850000X2.650000*%
%ADD11R,0.450000X1.310000*%
%ADD12R,1.475000X0.450000*%
%ADD13RoundRect,0.250000X0.325000X0.650000X-0.325000X0.650000X-0.325000X-0.650000X0.325000X-0.650000X0*%
%ADD14RoundRect,0.225000X0.046884X-0.333057X0.336138X0.011663X-0.046884X0.333057X-0.336138X-0.011663X0*%
%ADD15RoundRect,0.237500X0.237500X-0.250000X0.237500X0.250000X-0.237500X0.250000X-0.237500X-0.250000X0*%
%ADD16RoundRect,0.237500X-0.250000X-0.237500X0.250000X-0.237500X0.250000X0.237500X-0.250000X0.237500X0*%
%ADD17RoundRect,0.225000X-0.046884X0.333057X-0.336138X-0.011663X0.046884X-0.333057X0.336138X0.011663X0*%
%ADD18RoundRect,0.225000X0.225000X0.250000X-0.225000X0.250000X-0.225000X-0.250000X0.225000X-0.250000X0*%
%ADD19RoundRect,0.237500X0.320903X-0.126205X0.109594X0.326949X-0.320903X0.126205X-0.109594X-0.326949X0*%
%ADD20RoundRect,0.225000X-0.098265X-0.321666X0.309574X-0.131488X0.098265X0.321666X-0.309574X0.131488X0*%
%ADD21RoundRect,0.200000X-0.053033X0.335876X-0.335876X0.053033X0.053033X-0.335876X0.335876X-0.053033X0*%
%ADD22RoundRect,0.237500X-0.320903X0.126205X-0.109594X-0.326949X0.320903X-0.126205X0.109594X0.326949X0*%
%ADD23RoundRect,0.218750X0.218750X0.256250X-0.218750X0.256250X-0.218750X-0.256250X0.218750X-0.256250X0*%
%ADD24RotRect,2.650000X1.850000X205.000000*%
%ADD25RotRect,1.310000X0.450000X205.000000*%
%ADD26RoundRect,0.200000X0.053033X-0.335876X0.335876X-0.053033X-0.053033X0.335876X-0.335876X0.053033X0*%
%ADD27RoundRect,0.225000X0.250000X-0.225000X0.250000X0.225000X-0.250000X0.225000X-0.250000X-0.225000X0*%
%ADD28RoundRect,0.250000X-0.300000X0.300000X-0.300000X-0.300000X0.300000X-0.300000X0.300000X0.300000X0*%
%ADD29RoundRect,0.237500X-0.344173X-0.021239X0.038849X-0.342632X0.344173X0.021239X-0.038849X0.342632X0*%
%ADD30RoundRect,0.237500X0.250000X0.237500X-0.250000X0.237500X-0.250000X-0.237500X0.250000X-0.237500X0*%
%ADD31RoundRect,0.237500X-0.126205X-0.320903X0.326949X-0.109594X0.126205X0.320903X-0.326949X0.109594X0*%
%ADD32RoundRect,0.250000X0.036977X-0.422650X0.422650X0.036977X-0.036977X0.422650X-0.422650X-0.036977X0*%
%ADD33RoundRect,0.225000X-0.327703X-0.075733X0.040915X-0.333843X0.327703X0.075733X-0.040915X0.333843X0*%
%ADD34RoundRect,0.237500X-0.237500X0.250000X-0.237500X-0.250000X0.237500X-0.250000X0.237500X0.250000X0*%
%ADD35RoundRect,0.225000X-0.250000X0.225000X-0.250000X-0.225000X0.250000X-0.225000X0.250000X0.225000X0*%
%ADD36RoundRect,0.237500X0.097756X0.330681X-0.335256X0.080681X-0.097756X-0.330681X0.335256X-0.080681X0*%
%ADD37RoundRect,0.225000X-0.329006X0.069856X-0.104006X-0.319856X0.329006X-0.069856X0.104006X0.319856X0*%
%ADD38RoundRect,0.200000X0.200000X0.275000X-0.200000X0.275000X-0.200000X-0.275000X0.200000X-0.275000X0*%
%ADD39RoundRect,0.200000X-0.275000X0.200000X-0.275000X-0.200000X0.275000X-0.200000X0.275000X0.200000X0*%
%ADD40RoundRect,0.250000X-0.409808X0.109808X-0.109808X-0.409808X0.409808X-0.109808X0.109808X0.409808X0*%
%ADD41RoundRect,0.237500X0.344173X0.021239X-0.038849X0.342632X-0.344173X-0.021239X0.038849X-0.342632X0*%
%ADD42RoundRect,0.225000X0.075733X-0.327703X0.333843X0.040915X-0.075733X0.327703X-0.333843X-0.040915X0*%
%ADD43RoundRect,0.237500X-0.021239X0.344173X-0.342632X-0.038849X0.021239X-0.344173X0.342632X0.038849X0*%
%ADD44RoundRect,0.225000X0.098265X0.321666X-0.309574X0.131488X-0.098265X-0.321666X0.309574X-0.131488X0*%
%ADD45RoundRect,0.250000X-0.300000X-0.300000X0.300000X-0.300000X0.300000X0.300000X-0.300000X0.300000X0*%
%ADD46RoundRect,0.200000X-0.082105X0.329975X-0.339220X0.023558X0.082105X-0.329975X0.339220X-0.023558X0*%
%ADD47RoundRect,0.200000X-0.093883X-0.326819X0.281994X-0.190011X0.093883X0.326819X-0.281994X0.190011X0*%
%ADD48RoundRect,0.225000X-0.319856X-0.104006X0.069856X-0.329006X0.319856X0.104006X-0.069856X0.329006X0*%
%ADD49RotRect,0.250000X0.600000X240.000000*%
%ADD50RotRect,0.250000X0.600000X150.000000*%
%ADD51RotRect,0.250000X1.700000X150.000000*%
%ADD52RotRect,0.400000X2.100000X150.000000*%
%ADD53RoundRect,0.225000X-0.333057X-0.046884X0.011663X-0.336138X0.333057X0.046884X-0.011663X0.336138X0*%
%ADD54RoundRect,0.237500X-0.097756X-0.330681X0.335256X-0.080681X0.097756X0.330681X-0.335256X0.080681X0*%
%ADD55R,1.200000X1.200000*%
%ADD56RoundRect,0.200000X0.275000X-0.200000X0.275000X0.200000X-0.275000X0.200000X-0.275000X-0.200000X0*%
%ADD57RotRect,0.450000X1.475000X330.000000*%
%ADD58RoundRect,0.237500X-0.051155X0.341012X-0.337943X-0.068564X0.051155X-0.341012X0.337943X0.068564X0*%
%ADD59RoundRect,0.225000X0.333057X0.046884X-0.011663X0.336138X-0.333057X-0.046884X0.011663X-0.336138X0*%
%ADD60RoundRect,0.225000X-0.225000X-0.250000X0.225000X-0.250000X0.225000X0.250000X-0.225000X0.250000X0*%
%ADD61RoundRect,0.225000X0.321666X-0.098265X0.131488X0.309574X-0.321666X0.098265X-0.131488X-0.309574X0*%
%ADD62RoundRect,0.150000X-0.477297X-0.689429X0.689429X0.477297X0.477297X0.689429X-0.689429X-0.477297X0*%
%ADD63RotRect,2.413000X3.429000X30.000000*%
%ADD64RoundRect,0.237500X0.126205X0.320903X-0.326949X0.109594X-0.126205X-0.320903X0.326949X-0.109594X0*%
%ADD65RotRect,1.200000X1.200000X205.000000*%
%ADD66RoundRect,0.225000X0.104006X-0.319856X0.329006X0.069856X-0.104006X0.319856X-0.329006X-0.069856X0*%
%ADD67RoundRect,0.250000X0.300000X0.300000X-0.300000X0.300000X-0.300000X-0.300000X0.300000X-0.300000X0*%
%ADD68RoundRect,0.237500X0.341012X0.051155X-0.068564X0.337943X-0.341012X-0.051155X0.068564X-0.337943X0*%
%ADD69RoundRect,0.200000X-0.200000X-0.275000X0.200000X-0.275000X0.200000X0.275000X-0.200000X0.275000X0*%
%ADD70RotRect,1.200000X1.200000X30.000000*%
%ADD71RotRect,0.450000X1.525000X320.000000*%
%ADD72RotRect,2.870000X6.500000X230.000000*%
%ADD73RotRect,0.450000X1.475000X230.000000*%
%ADD74RoundRect,0.200000X0.138157X-0.310705X0.338157X0.035705X-0.138157X0.310705X-0.338157X-0.035705X0*%
%ADD75R,0.700000X1.950000*%
%ADD76RoundRect,0.200000X0.310705X0.138157X-0.035705X0.338157X-0.310705X-0.138157X0.035705X-0.338157X0*%
%ADD77RoundRect,0.200000X-0.138157X0.310705X-0.338157X-0.035705X0.138157X-0.310705X0.338157X0.035705X0*%
%ADD78RoundRect,0.225000X-0.075733X0.327703X-0.333843X-0.040915X0.075733X-0.327703X0.333843X0.040915X0*%
%ADD79R,2.000000X1.500000*%
%ADD80R,2.000000X3.800000*%
%ADD81RoundRect,0.200000X0.065042X0.333758X-0.297482X0.164711X-0.065042X-0.333758X0.297482X-0.164711X0*%
%ADD82RotRect,2.650000X1.850000X140.000000*%
%ADD83RotRect,1.310000X0.450000X140.000000*%
%ADD84RotRect,2.650000X1.850000X50.000000*%
%ADD85RotRect,1.310000X0.450000X50.000000*%
%ADD86RoundRect,0.250000X-0.145107X-0.398678X0.398678X-0.145107X0.145107X0.398678X-0.398678X0.145107X0*%
%ADD87RotRect,1.200000X1.200000X230.000000*%
%ADD88R,2.650000X1.850000*%
%ADD89R,1.310000X0.450000*%
%ADD90RotRect,1.200000X1.200000X50.000000*%
%ADD91RoundRect,0.225000X-0.330695X-0.061367X0.026314X-0.335310X0.330695X0.061367X-0.026314X0.335310X0*%
%ADD92RoundRect,0.225000X-0.061367X0.330695X-0.335310X-0.026314X0.061367X-0.330695X0.335310X0.026314X0*%
%ADD93RoundRect,0.237500X0.021239X-0.344173X0.342632X0.038849X-0.021239X0.344173X-0.342632X-0.038849X0*%
%ADD94RoundRect,0.237500X-0.341012X-0.051155X0.068564X-0.337943X0.341012X0.051155X-0.068564X0.337943X0*%
%ADD95RoundRect,0.250000X-0.036977X0.422650X-0.422650X-0.036977X0.036977X-0.422650X0.422650X0.036977X0*%
%ADD96RoundRect,0.200000X-0.065042X-0.333758X0.297482X-0.164711X0.065042X0.333758X-0.297482X0.164711X0*%
%ADD97RotRect,1.200000X1.200000X140.000000*%
%ADD98RoundRect,0.250000X0.300000X-0.300000X0.300000X0.300000X-0.300000X0.300000X-0.300000X-0.300000X0*%
%ADD99RoundRect,0.237500X0.330681X-0.097756X0.080681X0.335256X-0.330681X0.097756X-0.080681X-0.335256X0*%
%ADD100RoundRect,0.237500X0.051155X-0.341012X0.337943X0.068564X-0.051155X0.341012X-0.337943X-0.068564X0*%
%ADD101RoundRect,0.225000X0.329006X-0.069856X0.104006X0.319856X-0.329006X0.069856X-0.104006X-0.319856X0*%
%ADD102RotRect,2.650000X1.850000X120.000000*%
%ADD103RotRect,1.310000X0.450000X120.000000*%
%ADD104RoundRect,0.075000X-0.700000X-0.075000X0.700000X-0.075000X0.700000X0.075000X-0.700000X0.075000X0*%
%ADD105RoundRect,0.075000X-0.075000X-0.700000X0.075000X-0.700000X0.075000X0.700000X-0.075000X0.700000X0*%
%ADD106RotRect,0.450000X1.475000X25.000000*%
%ADD107RoundRect,0.225000X0.335876X0.017678X0.017678X0.335876X-0.335876X-0.017678X-0.017678X-0.335876X0*%
%ADD108RoundRect,0.237500X0.344715X-0.008839X-0.008839X0.344715X-0.344715X0.008839X0.008839X-0.344715X0*%
%ADD109RoundRect,0.250000X-0.422650X-0.036977X0.036977X-0.422650X0.422650X0.036977X-0.036977X0.422650X0*%
%ADD110RoundRect,0.225000X0.311878X-0.125926X0.157969X0.296936X-0.311878X0.125926X-0.157969X-0.296936X0*%
%ADD111RotRect,0.600000X1.250000X142.500000*%
%ADD112RoundRect,0.237500X-0.344715X0.008839X0.008839X-0.344715X0.344715X-0.008839X-0.008839X0.344715X0*%
%ADD113RoundRect,0.200000X-0.326819X0.093883X-0.190011X-0.281994X0.326819X-0.093883X0.190011X0.281994X0*%
%ADD114RotRect,0.450000X1.525000X295.000000*%
%ADD115RotRect,2.870000X6.500000X205.000000*%
%ADD116RoundRect,0.200000X-0.310705X-0.138157X0.035705X-0.338157X0.310705X0.138157X-0.035705X0.338157X0*%
%ADD117RotRect,0.450000X1.475000X20.000000*%
G04 APERTURE END LIST*
D10*
%TO.C,U12*%
X178500000Y-207700000D03*
X180650000Y-207700000D03*
D11*
X177625000Y-210550000D03*
X178275000Y-210550000D03*
X178925000Y-210550000D03*
X179575000Y-210545000D03*
X180225000Y-210550000D03*
X180875000Y-210550000D03*
X181525000Y-210550000D03*
X181525000Y-204850000D03*
X180875000Y-204850000D03*
X180225000Y-204850000D03*
X179575000Y-204850000D03*
X178925000Y-204850000D03*
X178275000Y-204850000D03*
X177625000Y-204850000D03*
%TD*%
D12*
%TO.C,IC5*%
X220659075Y-223153156D03*
X220659075Y-222503156D03*
X220659075Y-221853156D03*
X220659075Y-221203156D03*
X216235075Y-221203156D03*
X216235075Y-221853156D03*
X216235075Y-222503156D03*
X216235075Y-223153156D03*
%TD*%
D13*
%TO.C,C17*%
X254475000Y-217000000D03*
X251525000Y-217000000D03*
%TD*%
D14*
%TO.C,C121*%
X228101840Y-183993684D03*
X229098160Y-182806316D03*
%TD*%
D15*
%TO.C,R124*%
X172600000Y-218312500D03*
X172600000Y-216487500D03*
%TD*%
D16*
%TO.C,R178*%
X189635071Y-215060792D03*
X191460071Y-215060792D03*
%TD*%
D17*
%TO.C,C19*%
X138498160Y-176606316D03*
X137501840Y-177793684D03*
%TD*%
D18*
%TO.C,C29*%
X109575000Y-208875000D03*
X108025000Y-208875000D03*
%TD*%
D19*
%TO.C,R54*%
X229616287Y-70366890D03*
X228845009Y-68712878D03*
%TD*%
D20*
%TO.C,C52*%
X249347112Y-118420271D03*
X250751890Y-117765213D03*
%TD*%
D21*
%TO.C,R4*%
X283183363Y-187816637D03*
X282016637Y-188983363D03*
%TD*%
D22*
%TO.C,R194*%
X244561436Y-98851150D03*
X245332714Y-100505162D03*
%TD*%
D23*
%TO.C,D4*%
X274787500Y-205000000D03*
X273212500Y-205000000D03*
%TD*%
D10*
%TO.C,U46*%
X194265668Y-208123080D03*
X196415668Y-208123080D03*
D11*
X193390668Y-210973080D03*
X194040668Y-210973080D03*
X194690668Y-210973080D03*
X195340668Y-210968080D03*
X195990668Y-210973080D03*
X196640668Y-210973080D03*
X197290668Y-210973080D03*
X197290668Y-205273080D03*
X196640668Y-205273080D03*
X195990668Y-205273080D03*
X195340668Y-205273080D03*
X194690668Y-205273080D03*
X194040668Y-205273080D03*
X193390668Y-205273080D03*
%TD*%
D24*
%TO.C,U18*%
X239028944Y-119303495D03*
X238120314Y-117354933D03*
D25*
X241981712Y-118892052D03*
X241707010Y-118302952D03*
X241432308Y-117713852D03*
X241153075Y-117126865D03*
X240882904Y-116535652D03*
X240608202Y-115946552D03*
X240333501Y-115357452D03*
X235167546Y-117766376D03*
X235442248Y-118355476D03*
X235716950Y-118944576D03*
X235991652Y-119533676D03*
X236266354Y-120122776D03*
X236541056Y-120711876D03*
X236815757Y-121300976D03*
%TD*%
D26*
%TO.C,R118*%
X283416637Y-189783363D03*
X284583363Y-188616637D03*
%TD*%
D27*
%TO.C,C72*%
X274200000Y-191775000D03*
X274200000Y-190225000D03*
%TD*%
D14*
%TO.C,C49*%
X170033657Y-141632601D03*
X171029977Y-140445233D03*
%TD*%
D28*
%TO.C,D8*%
X146782938Y-199890379D03*
X146782938Y-202690379D03*
%TD*%
D29*
%TO.C,R24*%
X128525291Y-175824874D03*
X129923323Y-176997962D03*
%TD*%
D30*
%TO.C,R30*%
X157602500Y-210170000D03*
X155777500Y-210170000D03*
%TD*%
%TO.C,R31*%
X154217173Y-211617123D03*
X152392173Y-211617123D03*
%TD*%
D31*
%TO.C,R72*%
X245620069Y-112563795D03*
X247274081Y-111792517D03*
%TD*%
D32*
%TO.C,D15*%
X171047172Y-143750618D03*
X172846978Y-141605694D03*
%TD*%
D33*
%TO.C,C47*%
X174200000Y-139300000D03*
X175469686Y-140189044D03*
%TD*%
D27*
%TO.C,C23*%
X158230000Y-220175000D03*
X158230000Y-218625000D03*
%TD*%
D18*
%TO.C,C113*%
X127021832Y-205842478D03*
X125471832Y-205842478D03*
%TD*%
D27*
%TO.C,C117*%
X200600000Y-206575000D03*
X200600000Y-205025000D03*
%TD*%
D15*
%TO.C,R177*%
X200365906Y-219826901D03*
X200365906Y-218001901D03*
%TD*%
D34*
%TO.C,R175*%
X188771419Y-211504046D03*
X188771419Y-213329046D03*
%TD*%
D35*
%TO.C,C7*%
X252513478Y-181881646D03*
X252513478Y-183431646D03*
%TD*%
D36*
%TO.C,R9*%
X228390248Y-208743750D03*
X226809752Y-209656250D03*
%TD*%
D37*
%TO.C,C97*%
X218046097Y-207612428D03*
X218821097Y-208954768D03*
%TD*%
D38*
%TO.C,R13*%
X297272075Y-220678156D03*
X295622075Y-220678156D03*
%TD*%
D39*
%TO.C,R7*%
X240727075Y-188333156D03*
X240727075Y-189983156D03*
%TD*%
D40*
%TO.C,D19*%
X223200000Y-199887564D03*
X224600000Y-202312436D03*
%TD*%
D41*
%TO.C,R185*%
X233345398Y-175316839D03*
X231947366Y-174143751D03*
%TD*%
D42*
%TO.C,C48*%
X173002553Y-138312999D03*
X173891597Y-137043313D03*
%TD*%
D29*
%TO.C,R186*%
X233232940Y-172611663D03*
X234630972Y-173784751D03*
%TD*%
D43*
%TO.C,R182*%
X230086544Y-176800984D03*
X228913456Y-178199016D03*
%TD*%
D34*
%TO.C,R171*%
X119000000Y-200487500D03*
X119000000Y-202312500D03*
%TD*%
D44*
%TO.C,C51*%
X245693692Y-106829158D03*
X244288914Y-107484216D03*
%TD*%
D45*
%TO.C,D43*%
X232547075Y-149044884D03*
X235347075Y-149044884D03*
%TD*%
D34*
%TO.C,R128*%
X238447076Y-150632385D03*
X238447076Y-152457385D03*
%TD*%
D22*
%TO.C,R193*%
X241925423Y-94716220D03*
X242696701Y-96370232D03*
%TD*%
D23*
%TO.C,D2*%
X274787500Y-208266834D03*
X273212500Y-208266834D03*
%TD*%
D30*
%TO.C,R132*%
X240705352Y-161498509D03*
X238880352Y-161498509D03*
%TD*%
D16*
%TO.C,R29*%
X147034575Y-214678156D03*
X148859575Y-214678156D03*
%TD*%
D46*
%TO.C,R65*%
X175628307Y-119567955D03*
X174567707Y-120831929D03*
%TD*%
D27*
%TO.C,C3*%
X244637075Y-190343156D03*
X244637075Y-188793156D03*
%TD*%
D37*
%TO.C,C13*%
X225612500Y-200028830D03*
X226387500Y-201371170D03*
%TD*%
D35*
%TO.C,C119*%
X198800000Y-204225000D03*
X198800000Y-205775000D03*
%TD*%
D47*
%TO.C,R37*%
X261671829Y-129844129D03*
X263222321Y-129279795D03*
%TD*%
D35*
%TO.C,C8*%
X266070509Y-185168422D03*
X266070509Y-186718422D03*
%TD*%
D15*
%TO.C,R134*%
X246947075Y-154957385D03*
X246947075Y-153132385D03*
%TD*%
D29*
%TO.C,R21*%
X125748059Y-180091612D03*
X127146091Y-181264700D03*
%TD*%
D48*
%TO.C,C58*%
X109108830Y-193972500D03*
X110451170Y-194747500D03*
%TD*%
D34*
%TO.C,R133*%
X243947074Y-153132383D03*
X243947074Y-154957383D03*
%TD*%
D44*
%TO.C,C125*%
X230702389Y-93272471D03*
X229297611Y-93927529D03*
%TD*%
D49*
%TO.C,IC8*%
X105195160Y-196301602D03*
X105445160Y-195868589D03*
X105695160Y-195435577D03*
X105945160Y-195002564D03*
D50*
X105863128Y-194204647D03*
D51*
X104462295Y-194030961D03*
D50*
X104304282Y-193304647D03*
D52*
X103210000Y-195040000D03*
X104214590Y-195620000D03*
D50*
X104463128Y-196629519D03*
%TD*%
D53*
%TO.C,C20*%
X127085282Y-178532786D03*
X128272650Y-179529106D03*
%TD*%
D54*
%TO.C,R150*%
X228015177Y-213980085D03*
X229595673Y-213067585D03*
%TD*%
D55*
%TO.C,D56*%
X122000000Y-201000000D03*
X124800000Y-201000000D03*
%TD*%
D19*
%TO.C,R70*%
X244733639Y-120715006D03*
X243962361Y-119060994D03*
%TD*%
D56*
%TO.C,R117*%
X149674399Y-224381006D03*
X149674399Y-222731006D03*
%TD*%
D57*
%TO.C,IC3*%
X245486692Y-176398480D03*
X244923775Y-176073480D03*
X244360859Y-175748480D03*
X243797942Y-175423480D03*
X241585942Y-179254776D03*
X242148859Y-179579776D03*
X242711775Y-179904776D03*
X243274692Y-180229776D03*
%TD*%
D35*
%TO.C,C118*%
X191774841Y-209728443D03*
X191774841Y-211278443D03*
%TD*%
D58*
%TO.C,R60*%
X168758795Y-128832715D03*
X167712019Y-130327667D03*
%TD*%
D16*
%TO.C,R125*%
X175534575Y-216678156D03*
X177359575Y-216678156D03*
%TD*%
%TO.C,R36*%
X151840836Y-214449953D03*
X153665836Y-214449953D03*
%TD*%
D28*
%TO.C,D10*%
X174400000Y-204200000D03*
X174400000Y-207000000D03*
%TD*%
D27*
%TO.C,C80*%
X182890178Y-222045499D03*
X182890178Y-220495499D03*
%TD*%
D23*
%TO.C,D1*%
X274787500Y-210100000D03*
X273212500Y-210100000D03*
%TD*%
D53*
%TO.C,C50*%
X169100739Y-117493377D03*
X170288107Y-118489697D03*
%TD*%
D41*
%TO.C,R25*%
X132899016Y-180586544D03*
X131500984Y-179413456D03*
%TD*%
D59*
%TO.C,C122*%
X227400000Y-182400000D03*
X226212632Y-181403680D03*
%TD*%
D60*
%TO.C,C87*%
X237725000Y-159544884D03*
X239275000Y-159544884D03*
%TD*%
D27*
%TO.C,C116*%
X202335522Y-219342105D03*
X202335522Y-217792105D03*
%TD*%
D15*
%TO.C,R127*%
X242500000Y-159912500D03*
X242500000Y-158087500D03*
%TD*%
D37*
%TO.C,C96*%
X218802935Y-215199015D03*
X219577935Y-216541355D03*
%TD*%
D56*
%TO.C,R8*%
X242227075Y-189983156D03*
X242227075Y-188333156D03*
%TD*%
D61*
%TO.C,C31*%
X242451402Y-75588137D03*
X241796344Y-74183359D03*
%TD*%
D62*
%TO.C,U1*%
X276802872Y-193803051D03*
X277700898Y-194701076D03*
X278598924Y-195599102D03*
X279496949Y-196497128D03*
X282997128Y-192996949D03*
X282099102Y-192098924D03*
X281201076Y-191200898D03*
X280303051Y-190302872D03*
%TD*%
D63*
%TO.C,L2*%
X110310340Y-190080500D03*
X115369660Y-187159500D03*
%TD*%
D64*
%TO.C,R55*%
X226012245Y-61661938D03*
X224358233Y-62433216D03*
%TD*%
D65*
%TO.C,D13*%
X221848831Y-61778334D03*
X219311169Y-62961666D03*
%TD*%
D35*
%TO.C,C86*%
X234500000Y-165225000D03*
X234500000Y-166775000D03*
%TD*%
D66*
%TO.C,C60*%
X108552500Y-199251170D03*
X109327500Y-197908830D03*
%TD*%
D35*
%TO.C,C112*%
X117463465Y-200570563D03*
X117463465Y-202120563D03*
%TD*%
%TO.C,C24*%
X145400000Y-210025000D03*
X145400000Y-211575000D03*
%TD*%
D41*
%TO.C,R181*%
X232612897Y-181229235D03*
X231214865Y-180056147D03*
%TD*%
D16*
%TO.C,R32*%
X147034575Y-216678156D03*
X148859575Y-216678156D03*
%TD*%
D67*
%TO.C,D5*%
X259855000Y-221700000D03*
X257055000Y-221700000D03*
%TD*%
D68*
%TO.C,R59*%
X175891139Y-136196724D03*
X174396187Y-135149948D03*
%TD*%
D54*
%TO.C,R146*%
X222829184Y-214997682D03*
X224409680Y-214085182D03*
%TD*%
D69*
%TO.C,R18*%
X269122075Y-190678156D03*
X270772075Y-190678156D03*
%TD*%
D31*
%TO.C,R56*%
X223512997Y-60620599D03*
X225167009Y-59849321D03*
%TD*%
D60*
%TO.C,C77*%
X151172075Y-226678156D03*
X152722075Y-226678156D03*
%TD*%
D56*
%TO.C,R44*%
X214182642Y-222804117D03*
X214182642Y-221154117D03*
%TD*%
D38*
%TO.C,R15*%
X294005021Y-220457848D03*
X292355021Y-220457848D03*
%TD*%
D14*
%TO.C,C18*%
X134448915Y-184771840D03*
X135445235Y-183584472D03*
%TD*%
D70*
%TO.C,D47*%
X230187564Y-210100000D03*
X232612436Y-208700000D03*
%TD*%
D24*
%TO.C,U50*%
X235420986Y-100880122D03*
X234512356Y-98931560D03*
D25*
X238373754Y-100468679D03*
X238099052Y-99879579D03*
X237824350Y-99290479D03*
X237545117Y-98703492D03*
X237274946Y-98112279D03*
X237000244Y-97523179D03*
X236725543Y-96934079D03*
X231559588Y-99343003D03*
X231834290Y-99932103D03*
X232108992Y-100521203D03*
X232383694Y-101110303D03*
X232658396Y-101699403D03*
X232933098Y-102288503D03*
X233207799Y-102877603D03*
%TD*%
D71*
%TO.C,IC9*%
X171910773Y-136468014D03*
X171412844Y-136050202D03*
X170914915Y-135632390D03*
X170416986Y-135214578D03*
X169919057Y-134796766D03*
X169421128Y-134378954D03*
X168923200Y-133961142D03*
X168425271Y-133543331D03*
X167927342Y-133125519D03*
X167429413Y-132707707D03*
X166931484Y-132289895D03*
X166433555Y-131872083D03*
X162947075Y-136027108D03*
X163445004Y-136444920D03*
X163942933Y-136862732D03*
X164440862Y-137280544D03*
X164938791Y-137698356D03*
X165436720Y-138116168D03*
X165934648Y-138533980D03*
X166432577Y-138951791D03*
X166930506Y-139369603D03*
X167428435Y-139787415D03*
X167926364Y-140205227D03*
X168424293Y-140623039D03*
D72*
X167428924Y-136247561D03*
%TD*%
D64*
%TO.C,R71*%
X243537220Y-109820086D03*
X241883208Y-110591364D03*
%TD*%
D28*
%TO.C,D59*%
X191120000Y-205300000D03*
X191120000Y-208100000D03*
%TD*%
D60*
%TO.C,C89*%
X232672075Y-152544884D03*
X234222075Y-152544884D03*
%TD*%
D73*
%TO.C,IC2*%
X173744389Y-119031487D03*
X174162201Y-118533558D03*
X174580013Y-118035629D03*
X174997825Y-117537700D03*
X171608845Y-114694007D03*
X171191033Y-115191936D03*
X170773221Y-115689865D03*
X170355409Y-116187794D03*
%TD*%
D74*
%TO.C,R76*%
X109847500Y-200064471D03*
X110672500Y-198635529D03*
%TD*%
D22*
%TO.C,R187*%
X242133770Y-100135063D03*
X242905048Y-101789075D03*
%TD*%
D20*
%TO.C,C127*%
X233719478Y-104514747D03*
X235124256Y-103859689D03*
%TD*%
D75*
%TO.C,U4*%
X294932075Y-208953156D03*
X293662075Y-208953156D03*
X292392075Y-208953156D03*
X291122075Y-208953156D03*
X289852075Y-208953156D03*
X288582075Y-208953156D03*
X287312075Y-208953156D03*
X286042075Y-208953156D03*
X284772075Y-208953156D03*
X283502075Y-208953156D03*
X282232075Y-208953156D03*
X280962075Y-208953156D03*
X280962075Y-218403156D03*
X282232075Y-218403156D03*
X283502075Y-218403156D03*
X284772075Y-218403156D03*
X286042075Y-218403156D03*
X287312075Y-218403156D03*
X288582075Y-218403156D03*
X289852075Y-218403156D03*
X291122075Y-218403156D03*
X292392075Y-218403156D03*
X293662075Y-218403156D03*
X294932075Y-218403156D03*
%TD*%
D43*
%TO.C,R39*%
X136586544Y-179100984D03*
X135413456Y-180499016D03*
%TD*%
D60*
%TO.C,C9*%
X263672075Y-199178156D03*
X265222075Y-199178156D03*
%TD*%
D69*
%TO.C,R12*%
X292355021Y-223457848D03*
X294005021Y-223457848D03*
%TD*%
D54*
%TO.C,R148*%
X217516213Y-212795346D03*
X219096709Y-211882846D03*
%TD*%
D17*
%TO.C,C21*%
X134998160Y-169406316D03*
X134001840Y-170593684D03*
%TD*%
D15*
%TO.C,R67*%
X247400000Y-120112500D03*
X247400000Y-118287500D03*
%TD*%
D76*
%TO.C,R74*%
X105984471Y-199672500D03*
X104555529Y-198847500D03*
%TD*%
D69*
%TO.C,R2*%
X269975000Y-208500000D03*
X271625000Y-208500000D03*
%TD*%
D27*
%TO.C,C114*%
X124746832Y-210117478D03*
X124746832Y-208567478D03*
%TD*%
D39*
%TO.C,R43*%
X222682642Y-221154117D03*
X222682642Y-222804117D03*
%TD*%
D22*
%TO.C,R68*%
X244815786Y-114868621D03*
X245587064Y-116522633D03*
%TD*%
D77*
%TO.C,R77*%
X107082500Y-196655529D03*
X106257500Y-198084471D03*
%TD*%
D78*
%TO.C,C62*%
X116934522Y-191685157D03*
X116045478Y-192954843D03*
%TD*%
D22*
%TO.C,R188*%
X235561436Y-93656744D03*
X236332714Y-95310756D03*
%TD*%
D20*
%TO.C,C128*%
X229297611Y-98327529D03*
X230702389Y-97672471D03*
%TD*%
D27*
%TO.C,C115*%
X114600000Y-213775000D03*
X114600000Y-212225000D03*
%TD*%
D18*
%TO.C,C85*%
X246475000Y-149800000D03*
X244925000Y-149800000D03*
%TD*%
D20*
%TO.C,C54*%
X233987080Y-116627449D03*
X235391858Y-115972391D03*
%TD*%
D79*
%TO.C,U5*%
X256654964Y-214594980D03*
X256654964Y-216894980D03*
D80*
X262954964Y-216894980D03*
D79*
X256654964Y-219194980D03*
%TD*%
D15*
%TO.C,R122*%
X179447075Y-221379856D03*
X179447075Y-219554856D03*
%TD*%
D26*
%TO.C,R73*%
X278816637Y-189583363D03*
X279983363Y-188416637D03*
%TD*%
D81*
%TO.C,R46*%
X241540814Y-78039458D03*
X240045406Y-78736778D03*
%TD*%
D82*
%TO.C,U48*%
X224096972Y-175584745D03*
X225478966Y-173937749D03*
D83*
X225717760Y-178086978D03*
X226135572Y-177589049D03*
X226553384Y-177091121D03*
X226967365Y-176589978D03*
X227389008Y-176095263D03*
X227806820Y-175597334D03*
X228224632Y-175099405D03*
X223858178Y-171435516D03*
X223440366Y-171933445D03*
X223022554Y-172431373D03*
X222604742Y-172929302D03*
X222186930Y-173427231D03*
X221769118Y-173925160D03*
X221351306Y-174423089D03*
%TD*%
D16*
%TO.C,R170*%
X121498065Y-207103331D03*
X123323065Y-207103331D03*
%TD*%
D84*
%TO.C,U11*%
X134400000Y-173909003D03*
X136046996Y-175290997D03*
D85*
X131897767Y-175529791D03*
X132395696Y-175947603D03*
X132893624Y-176365415D03*
X133394767Y-176779396D03*
X133889482Y-177201039D03*
X134387411Y-177618851D03*
X134885340Y-178036663D03*
X138549229Y-173670209D03*
X138051300Y-173252397D03*
X137553372Y-172834585D03*
X137055443Y-172416773D03*
X136557514Y-171998961D03*
X136059585Y-171581149D03*
X135561656Y-171163337D03*
%TD*%
D35*
%TO.C,C26*%
X148740000Y-201455000D03*
X148740000Y-203005000D03*
%TD*%
%TO.C,C82*%
X173395288Y-213299312D03*
X173395288Y-214849312D03*
%TD*%
D86*
%TO.C,D16*%
X219231169Y-77591666D03*
X221768831Y-76408334D03*
%TD*%
D87*
%TO.C,D14*%
X161299903Y-134427538D03*
X159500097Y-136572462D03*
%TD*%
D88*
%TO.C,U32*%
X235587075Y-157069884D03*
X235587075Y-154919884D03*
D89*
X238437075Y-157944884D03*
X238437075Y-157294884D03*
X238437075Y-156644884D03*
X238432075Y-155994884D03*
X238437075Y-155344884D03*
X238437075Y-154694884D03*
X238437075Y-154044884D03*
X232737075Y-154044884D03*
X232737075Y-154694884D03*
X232737075Y-155344884D03*
X232737075Y-155994884D03*
X232737075Y-156644884D03*
X232737075Y-157294884D03*
X232737075Y-157944884D03*
%TD*%
D48*
%TO.C,C56*%
X99713830Y-199577500D03*
X101056170Y-200352500D03*
%TD*%
D90*
%TO.C,D6*%
X137500097Y-182090103D03*
X139299903Y-179945179D03*
%TD*%
D39*
%TO.C,R105*%
X257513478Y-181431646D03*
X257513478Y-183081646D03*
%TD*%
D91*
%TO.C,C79*%
X195585151Y-158928210D03*
X196814849Y-159871790D03*
%TD*%
D35*
%TO.C,C41*%
X255513478Y-182606646D03*
X255513478Y-184156646D03*
%TD*%
D34*
%TO.C,R129*%
X241947074Y-153132384D03*
X241947074Y-154957384D03*
%TD*%
D92*
%TO.C,C78*%
X199771790Y-158985151D03*
X198828210Y-160214849D03*
%TD*%
D44*
%TO.C,C124*%
X241578654Y-87554250D03*
X240173876Y-88209308D03*
%TD*%
D86*
%TO.C,D21*%
X236731169Y-126591666D03*
X239268831Y-125408334D03*
%TD*%
D36*
%TO.C,R149*%
X227990248Y-210743750D03*
X226409752Y-211656250D03*
%TD*%
D30*
%TO.C,R131*%
X245859574Y-151500000D03*
X244034574Y-151500000D03*
%TD*%
D58*
%TO.C,R58*%
X170766312Y-125965684D03*
X169719536Y-127460636D03*
%TD*%
D93*
%TO.C,R23*%
X135860531Y-185877172D03*
X137033619Y-184479140D03*
%TD*%
D56*
%TO.C,R14*%
X294019544Y-206836685D03*
X294019544Y-205186685D03*
%TD*%
D94*
%TO.C,R19*%
X173091668Y-129233592D03*
X174586620Y-130280368D03*
%TD*%
D95*
%TO.C,D7*%
X133899903Y-167427538D03*
X132100097Y-169572462D03*
%TD*%
D23*
%TO.C,D3*%
X274787500Y-206661538D03*
X273212500Y-206661538D03*
%TD*%
D53*
%TO.C,C123*%
X225081836Y-169688295D03*
X226269204Y-170684615D03*
%TD*%
D86*
%TO.C,D63*%
X234678244Y-106269822D03*
X237215906Y-105086490D03*
%TD*%
D35*
%TO.C,C6*%
X253500000Y-185111315D03*
X253500000Y-186661315D03*
%TD*%
D55*
%TO.C,D41*%
X242409575Y-148594883D03*
X239609575Y-148594883D03*
%TD*%
D30*
%TO.C,R35*%
X153212931Y-217295877D03*
X151387931Y-217295877D03*
%TD*%
D15*
%TO.C,R123*%
X185708420Y-222411395D03*
X185708420Y-220586395D03*
%TD*%
D44*
%TO.C,C22*%
X228149464Y-58350627D03*
X226744686Y-59005685D03*
%TD*%
D55*
%TO.C,D58*%
X198400000Y-218200000D03*
X198400000Y-221000000D03*
%TD*%
D96*
%TO.C,R45*%
X236275295Y-71311568D03*
X237770703Y-70614248D03*
%TD*%
D22*
%TO.C,R189*%
X239206498Y-95984073D03*
X239977776Y-97638085D03*
%TD*%
D86*
%TO.C,D17*%
X227331169Y-96991666D03*
X229868831Y-95808334D03*
%TD*%
D69*
%TO.C,R3*%
X269947075Y-206800000D03*
X271597075Y-206800000D03*
%TD*%
D16*
%TO.C,R34*%
X147087500Y-211500000D03*
X148912500Y-211500000D03*
%TD*%
D12*
%TO.C,IC6*%
X155886399Y-224856006D03*
X155886399Y-224206006D03*
X155886399Y-223556006D03*
X155886399Y-222906006D03*
X151462399Y-222906006D03*
X151462399Y-223556006D03*
X151462399Y-224206006D03*
X151462399Y-224856006D03*
%TD*%
D97*
%TO.C,D60*%
X231097734Y-172125422D03*
X228952810Y-170325616D03*
%TD*%
D12*
%TO.C,IC4*%
X111412000Y-207175000D03*
X111412000Y-206525000D03*
X111412000Y-205875000D03*
X111412000Y-205225000D03*
X106988000Y-205225000D03*
X106988000Y-205875000D03*
X106988000Y-206525000D03*
X106988000Y-207175000D03*
%TD*%
D41*
%TO.C,R183*%
X236209856Y-177720408D03*
X234811824Y-176547320D03*
%TD*%
D48*
%TO.C,C55*%
X101263830Y-196927500D03*
X102606170Y-197702500D03*
%TD*%
D69*
%TO.C,R5*%
X269947363Y-205000000D03*
X271597363Y-205000000D03*
%TD*%
D65*
%TO.C,D20*%
X239528823Y-111606047D03*
X236991161Y-112789379D03*
%TD*%
D56*
%TO.C,R16*%
X292397613Y-206836685D03*
X292397613Y-205186685D03*
%TD*%
D22*
%TO.C,R52*%
X226527053Y-64925102D03*
X227298331Y-66579114D03*
%TD*%
D76*
%TO.C,R40*%
X241817775Y-181453230D03*
X240388833Y-180628230D03*
%TD*%
D17*
%TO.C,C11*%
X140698160Y-174206316D03*
X139701840Y-175393684D03*
%TD*%
D41*
%TO.C,R184*%
X228099016Y-180864035D03*
X226700984Y-179690947D03*
%TD*%
D34*
%TO.C,R172*%
X126346832Y-207529978D03*
X126346832Y-209354978D03*
%TD*%
D98*
%TO.C,D57*%
X116854108Y-214516656D03*
X116854108Y-211716656D03*
%TD*%
D99*
%TO.C,R147*%
X232655016Y-213191521D03*
X231742516Y-211611025D03*
%TD*%
D64*
%TO.C,R69*%
X246568310Y-108070086D03*
X244914298Y-108841364D03*
%TD*%
D59*
%TO.C,C120*%
X237390099Y-176099932D03*
X236202731Y-175103612D03*
%TD*%
D100*
%TO.C,R61*%
X166023526Y-129252189D03*
X167070302Y-127757237D03*
%TD*%
D101*
%TO.C,C95*%
X234318316Y-212072442D03*
X233543316Y-210730102D03*
%TD*%
D65*
%TO.C,D62*%
X239020256Y-89905796D03*
X236482594Y-91089128D03*
%TD*%
D54*
%TO.C,R143*%
X222026836Y-213607975D03*
X223607332Y-212695475D03*
%TD*%
D55*
%TO.C,D38*%
X187714543Y-216550993D03*
X184914543Y-216550993D03*
%TD*%
D60*
%TO.C,C88*%
X231225000Y-159544884D03*
X232775000Y-159544884D03*
%TD*%
D64*
%TO.C,R51*%
X231627006Y-64914361D03*
X229972994Y-65685639D03*
%TD*%
D40*
%TO.C,D49*%
X213747075Y-204965720D03*
X215147075Y-207390592D03*
%TD*%
D27*
%TO.C,C14*%
X296855021Y-218732848D03*
X296855021Y-217182848D03*
%TD*%
D34*
%TO.C,R173*%
X117858647Y-204277902D03*
X117858647Y-206102902D03*
%TD*%
D35*
%TO.C,C4*%
X244637075Y-192018156D03*
X244637075Y-193568156D03*
%TD*%
D66*
%TO.C,C28*%
X244696738Y-181123541D03*
X245471738Y-179781201D03*
%TD*%
D36*
%TO.C,R6*%
X227590248Y-207343750D03*
X226009752Y-208256250D03*
%TD*%
D94*
%TO.C,R57*%
X170711368Y-131215328D03*
X172206320Y-132262104D03*
%TD*%
D18*
%TO.C,C30*%
X218722075Y-225178156D03*
X217172075Y-225178156D03*
%TD*%
D102*
%TO.C,U7*%
X220738046Y-205875000D03*
X222600000Y-204800000D03*
D103*
X221405273Y-208780672D03*
X221968190Y-208455672D03*
X222531106Y-208130672D03*
X223091523Y-207801342D03*
X223656940Y-207480672D03*
X224219856Y-207155672D03*
X224782773Y-206830672D03*
X221932773Y-201894328D03*
X221369856Y-202219328D03*
X220806940Y-202544328D03*
X220244023Y-202869328D03*
X219681106Y-203194328D03*
X219118190Y-203519328D03*
X218555273Y-203844328D03*
%TD*%
D22*
%TO.C,R190*%
X244641436Y-93501150D03*
X245412714Y-95155162D03*
%TD*%
D78*
%TO.C,C46*%
X169049142Y-124931163D03*
X168160098Y-126200849D03*
%TD*%
D104*
%TO.C,U3*%
X254338478Y-187906646D03*
X254338478Y-188406646D03*
X254338478Y-188906646D03*
X254338478Y-189406646D03*
X254338478Y-189906646D03*
X254338478Y-190406646D03*
X254338478Y-190906646D03*
X254338478Y-191406646D03*
X254338478Y-191906646D03*
X254338478Y-192406646D03*
X254338478Y-192906646D03*
X254338478Y-193406646D03*
X254338478Y-193906646D03*
X254338478Y-194406646D03*
X254338478Y-194906646D03*
X254338478Y-195406646D03*
D105*
X256263478Y-197331646D03*
X256763478Y-197331646D03*
X257263478Y-197331646D03*
X257763478Y-197331646D03*
X258263478Y-197331646D03*
X258763478Y-197331646D03*
X259263478Y-197331646D03*
X259763478Y-197331646D03*
X260263478Y-197331646D03*
X260763478Y-197331646D03*
X261263478Y-197331646D03*
X261763478Y-197331646D03*
X262263478Y-197331646D03*
X262763478Y-197331646D03*
X263263478Y-197331646D03*
X263763478Y-197331646D03*
D104*
X265688478Y-195406646D03*
X265688478Y-194906646D03*
X265688478Y-194406646D03*
X265688478Y-193906646D03*
X265688478Y-193406646D03*
X265688478Y-192906646D03*
X265688478Y-192406646D03*
X265688478Y-191906646D03*
X265688478Y-191406646D03*
X265688478Y-190906646D03*
X265688478Y-190406646D03*
X265688478Y-189906646D03*
X265688478Y-189406646D03*
X265688478Y-188906646D03*
X265688478Y-188406646D03*
X265688478Y-187906646D03*
D105*
X263763478Y-185981646D03*
X263263478Y-185981646D03*
X262763478Y-185981646D03*
X262263478Y-185981646D03*
X261763478Y-185981646D03*
X261263478Y-185981646D03*
X260763478Y-185981646D03*
X260263478Y-185981646D03*
X259763478Y-185981646D03*
X259263478Y-185981646D03*
X258763478Y-185981646D03*
X258263478Y-185981646D03*
X257763478Y-185981646D03*
X257263478Y-185981646D03*
X256763478Y-185981646D03*
X256263478Y-185981646D03*
%TD*%
D39*
%TO.C,R41*%
X113412000Y-205550000D03*
X113412000Y-207200000D03*
%TD*%
D13*
%TO.C,C16*%
X254475000Y-219500000D03*
X251525000Y-219500000D03*
%TD*%
D15*
%TO.C,R33*%
X156289400Y-220107912D03*
X156289400Y-218282912D03*
%TD*%
D20*
%TO.C,C126*%
X236600467Y-103171321D03*
X238005245Y-102516263D03*
%TD*%
D69*
%TO.C,R1*%
X269943219Y-210200000D03*
X271593219Y-210200000D03*
%TD*%
D20*
%TO.C,C53*%
X241407611Y-120847529D03*
X242812389Y-120192471D03*
%TD*%
D43*
%TO.C,R26*%
X130586544Y-180900984D03*
X129413456Y-182299016D03*
%TD*%
D41*
%TO.C,R22*%
X130279842Y-185129561D03*
X128881810Y-183956473D03*
%TD*%
D39*
%TO.C,R116*%
X157674399Y-223056006D03*
X157674399Y-224706006D03*
%TD*%
D37*
%TO.C,C99*%
X216059575Y-204506986D03*
X216834575Y-205849326D03*
%TD*%
D41*
%TO.C,R10*%
X133099016Y-183386544D03*
X131700984Y-182213456D03*
%TD*%
D106*
%TO.C,IC7*%
X238939203Y-72164508D03*
X238350103Y-72439211D03*
X237761003Y-72713913D03*
X237171903Y-72988615D03*
X239041567Y-76998122D03*
X239630667Y-76723419D03*
X240219767Y-76448717D03*
X240808867Y-76174015D03*
%TD*%
D45*
%TO.C,D42*%
X229600000Y-161678156D03*
X232400000Y-161678156D03*
%TD*%
D107*
%TO.C,C1*%
X284248008Y-186848008D03*
X283151992Y-185751992D03*
%TD*%
D108*
%TO.C,R179*%
X199645235Y-216195410D03*
X198354765Y-214904940D03*
%TD*%
D35*
%TO.C,C81*%
X171000000Y-217025000D03*
X171000000Y-218575000D03*
%TD*%
D28*
%TO.C,D11*%
X158720474Y-204008104D03*
X158720474Y-206808104D03*
%TD*%
D78*
%TO.C,C61*%
X118204522Y-192585157D03*
X117315478Y-193854843D03*
%TD*%
D30*
%TO.C,R176*%
X196412500Y-215000000D03*
X194587500Y-215000000D03*
%TD*%
D64*
%TO.C,R53*%
X229413452Y-60075929D03*
X227759440Y-60847207D03*
%TD*%
D15*
%TO.C,R174*%
X116200000Y-205512500D03*
X116200000Y-203687500D03*
%TD*%
D48*
%TO.C,C59*%
X104544830Y-191192500D03*
X105887170Y-191967500D03*
%TD*%
D16*
%TO.C,R119*%
X175534575Y-215178156D03*
X177359575Y-215178156D03*
%TD*%
D109*
%TO.C,D61*%
X217927538Y-174100097D03*
X220072462Y-175899903D03*
%TD*%
D30*
%TO.C,R126*%
X176859575Y-218678156D03*
X175034575Y-218678156D03*
%TD*%
D95*
%TO.C,D18*%
X143099903Y-174655076D03*
X141300097Y-176800000D03*
%TD*%
D110*
%TO.C,C2*%
X267506516Y-134720606D03*
X266976384Y-133264082D03*
%TD*%
D19*
%TO.C,R192*%
X241334799Y-105280630D03*
X240563521Y-103626618D03*
%TD*%
D56*
%TO.C,R42*%
X104912000Y-206700000D03*
X104912000Y-205050000D03*
%TD*%
D111*
%TO.C,D22*%
X196637553Y-157115030D03*
X198144925Y-158271676D03*
X198608762Y-156106646D03*
%TD*%
D16*
%TO.C,R169*%
X122441902Y-204254326D03*
X124266902Y-204254326D03*
%TD*%
D35*
%TO.C,C25*%
X148800000Y-208425000D03*
X148800000Y-209975000D03*
%TD*%
D112*
%TO.C,R180*%
X199554765Y-213954765D03*
X200845235Y-215245235D03*
%TD*%
D27*
%TO.C,C5*%
X254013478Y-198431646D03*
X254013478Y-196881646D03*
%TD*%
D20*
%TO.C,C32*%
X231244686Y-71505685D03*
X232649464Y-70850627D03*
%TD*%
%TO.C,C43*%
X226027611Y-70037529D03*
X227432389Y-69382471D03*
%TD*%
%TO.C,C44*%
X219337611Y-75367529D03*
X220742389Y-74712471D03*
%TD*%
D113*
%TO.C,R38*%
X266717833Y-137124754D03*
X267282167Y-138675246D03*
%TD*%
D27*
%TO.C,C10*%
X256447075Y-201453156D03*
X256447075Y-199903156D03*
%TD*%
D35*
%TO.C,C83*%
X172200000Y-205425000D03*
X172200000Y-206975000D03*
%TD*%
D10*
%TO.C,U9*%
X151218417Y-206153380D03*
X153368417Y-206153380D03*
D11*
X150343417Y-209003380D03*
X150993417Y-209003380D03*
X151643417Y-209003380D03*
X152293417Y-208998380D03*
X152943417Y-209003380D03*
X153593417Y-209003380D03*
X154243417Y-209003380D03*
X154243417Y-203303380D03*
X153593417Y-203303380D03*
X152943417Y-203303380D03*
X152293417Y-203303380D03*
X151643417Y-203303380D03*
X150993417Y-203303380D03*
X150343417Y-203303380D03*
%TD*%
D38*
%TO.C,R47*%
X270772075Y-189178156D03*
X269122075Y-189178156D03*
%TD*%
D15*
%TO.C,R130*%
X244100000Y-159925000D03*
X244100000Y-158100000D03*
%TD*%
D114*
%TO.C,IC10*%
X224457534Y-70937820D03*
X224182832Y-70348720D03*
X223908130Y-69759619D03*
X223633428Y-69170519D03*
X223358727Y-68581419D03*
X223084025Y-67992319D03*
X222809323Y-67403219D03*
X222534621Y-66814119D03*
X222259919Y-66225019D03*
X221985217Y-65635919D03*
X221710515Y-65046819D03*
X221435813Y-64457719D03*
X216520000Y-66750000D03*
X216794702Y-67339100D03*
X217069404Y-67928201D03*
X217344106Y-68517301D03*
X217618807Y-69106401D03*
X217893509Y-69695501D03*
X218168211Y-70284601D03*
X218442913Y-70873701D03*
X218717615Y-71462801D03*
X218992317Y-72051901D03*
X219267019Y-72641001D03*
X219541721Y-73230101D03*
D115*
X220488767Y-68843910D03*
%TD*%
D55*
%TO.C,D9*%
X158055624Y-216337426D03*
X158055624Y-213537426D03*
%TD*%
D116*
%TO.C,R75*%
X108285529Y-195267500D03*
X109714471Y-196092500D03*
%TD*%
D10*
%TO.C,U44*%
X121921600Y-212387072D03*
X119771600Y-212387072D03*
D11*
X122796600Y-209537072D03*
X122146600Y-209537072D03*
X121496600Y-209537072D03*
X120846600Y-209542072D03*
X120196600Y-209537072D03*
X119546600Y-209537072D03*
X118896600Y-209537072D03*
X118896600Y-215237072D03*
X119546600Y-215237072D03*
X120196600Y-215237072D03*
X120846600Y-215237072D03*
X121496600Y-215237072D03*
X122146600Y-215237072D03*
X122796600Y-215237072D03*
%TD*%
D64*
%TO.C,R191*%
X242548506Y-89308755D03*
X240894494Y-90080033D03*
%TD*%
D35*
%TO.C,C27*%
X156345279Y-203706580D03*
X156345279Y-205256580D03*
%TD*%
D48*
%TO.C,C57*%
X100488830Y-198252500D03*
X101831170Y-199027500D03*
%TD*%
D117*
%TO.C,IC1*%
X264279476Y-131011216D03*
X263668676Y-131233529D03*
X263057875Y-131455842D03*
X262447075Y-131678156D03*
X263960172Y-135835356D03*
X264570972Y-135613043D03*
X265181773Y-135390730D03*
X265792573Y-135168416D03*
%TD*%
D107*
%TO.C,C42*%
X277148008Y-197048008D03*
X276051992Y-195951992D03*
%TD*%
M02*
